<?xml version="1.0" encoding="utf-8"?>
<!-- Generator: Adobe Illustrator 16.0.0, SVG Export Plug-In . SVG Version: 6.00 Build 0)  -->
<!DOCTYPE svg PUBLIC "-//W3C//DTD SVG 1.1//EN" "http://www.w3.org/Graphics/SVG/1.1/DTD/svg11.dtd">
<svg version="1.1" id="Layer_1" xmlns="http://www.w3.org/2000/svg" xmlns:xlink="http://www.w3.org/1999/xlink" x="0px" y="0px"
	 width="128px" height="128px" viewBox="356.945 233.64 128 128" enable-background="new 356.945 233.64 128 128"
	 xml:space="preserve">
<g>
	
		<linearGradient id="SVGID_1_" gradientUnits="userSpaceOnUse" x1="61.0088" y1="543.9351" x2="61.0088" y2="518.4912" gradientTransform="matrix(4.6506 0 0 -4.6506 121.7277 2767.6729)">
		<stop  offset="0.0645" style="stop-color:#04C7E1"/>
		<stop  offset="0.2688" style="stop-color:#1DBFE1"/>
		<stop  offset="0.9677" style="stop-color:#128CA6"/>
	</linearGradient>
	<path fill="url(#SVGID_1_)" d="M432.708,349.694c1.249-1.561,2.811-3.33,4.58-5.412l0.938-1.041c1.145-1.25,1.978-2.29,2.914-3.227
		c1.77-1.875,3.331-3.54,6.038-7.287c2.706-3.747,4.476-6.558,4.163-11.347c-0.104-2.497-0.208-4.163-1.874-6.142
		c-0.937-1.144-2.811-2.914-4.684-4.788c-2.082-1.978-3.852-3.852-6.245-6.453c-2.395-2.498-5.621-8.952-5.621-8.952
		c-0.938-2.082-2.707-6.559-3.123-10.722l-7.183-36.641h-20.298l-9.993,46.114l-8.848-46.114H359.53l21.652,105.03h20.194
		l10.097-45.384l8.952,45.384h9.369L432.708,349.694z"/>
	
		<linearGradient id="SVGID_2_" gradientUnits="userSpaceOnUse" x1="61.0088" y1="540.9878" x2="61.0088" y2="517.5807" gradientTransform="matrix(4.6506 0 0 -4.6506 121.7277 2767.6729)">
		<stop  offset="0" style="stop-color:#00E9FF"/>
		<stop  offset="0.9677" style="stop-color:#186D92"/>
	</linearGradient>
	<path opacity="0.4" fill="url(#SVGID_2_)" enable-background="new    " d="M451.34,321.38c-0.104-2.497-0.208-4.163-1.874-6.142
		c-0.937-1.144-2.811-2.914-4.684-4.788c-2.082-1.978-3.852-3.852-6.245-6.453c-2.395-2.498-5.621-8.952-5.621-8.952
		c-0.938-2.082-2.707-6.559-3.123-10.722l-7.183-36.641h-20.298l-9.993,46.114l-8.848-46.114H359.53l21.652,105.03h20.194
		l10.097-45.384l8.952,45.384h9.369l2.811-3.019c1.249-1.561,2.811-3.33,4.58-5.412l0.937-1.041c1.146-1.25,1.978-2.29,2.914-3.227
		c1.77-1.875,3.332-3.54,6.038-7.287C449.883,328.98,451.653,326.169,451.34,321.38z M445.824,331.791
		c-2.707,3.643-4.164,5.309-5.934,7.183l-0.207,0.208c-0.834,0.937-1.771,1.873-2.812,3.122l-0.938,1.041
		c-1.873,2.187-3.33,3.852-4.579,5.413l-2.29,2.499h-7.392l-8.64-44.24h-3.018l-9.785,44.136h-17.696l-21.027-101.7h20.819
		l8.536,44.864h3.019l9.681-44.968h17.8l6.87,35.288c0.521,4.268,2.291,8.743,3.332,11.033c0.208,0.313,3.33,6.767,5.829,9.369
		l0.729,0.832c2.082,2.187,3.644,3.852,5.517,5.621c1.771,1.666,3.645,3.436,4.581,4.58c1.248,1.562,1.353,2.915,1.456,5.205
		C449.988,325.752,448.425,328.251,445.824,331.791z"/>
	
		<linearGradient id="SVGID_3_" gradientUnits="userSpaceOnUse" x1="72.3975" y1="545.688" x2="72.3975" y2="517.8769" gradientTransform="matrix(4.6506 0 0 -4.6506 121.7277 2767.6729)">
		<stop  offset="0" style="stop-color:#FFF200"/>
		<stop  offset="0.1989" style="stop-color:#FAB100"/>
		<stop  offset="0.7473" style="stop-color:#FA930D"/>
		<stop  offset="0.9785" style="stop-color:#FA840D"/>
	</linearGradient>
	<path fill="url(#SVGID_3_)" d="M475.075,254.136c2.081-2.499,3.852-4.476,5.309-6.246h-32.27
		c-1.873,2.499-5.829,7.183-8.016,11.346c-2.914,5.517-5.309,9.681-5.621,19.882l0.104,3.331c0,4.789,3.435,11.971,3.435,11.971
		c0.521,1.249,2.396,3.956,3.54,5.621l0,0c0.416,0.521,0.624,0.832,0.624,0.832c3.435,3.956,8.744,8.433,11.033,11.243
		c2.708,3.331,2.811,6.454,2.915,8.951c0.417,6.559-2.289,10.618-5.1,14.47c-4.373,5.934-5.934,6.975-9.265,10.826
		c-2.081,2.498-3.852,4.476-5.309,6.245h33.31c1.978-2.498,4.788-7.183,6.975-11.347c2.915-5.517,5.308-9.681,5.621-19.882
		l-0.104-3.331c0-4.892-3.435-12.074-3.435-12.074c-0.521-1.249-2.395-3.956-3.54-5.621l0,0c-0.416-0.521-0.624-0.832-0.624-0.832
		c-3.435-3.956-8.744-8.433-11.035-11.243c-2.705-3.331-2.811-6.454-2.913-8.952c-0.417-6.558,2.289-10.618,5.1-14.469
		C470.182,259.029,471.743,257.988,475.075,254.136z"/>
	
		<linearGradient id="SVGID_4_" gradientUnits="userSpaceOnUse" x1="72.3975" y1="540.9878" x2="72.3975" y2="517.5803" gradientTransform="matrix(4.6506 0 0 -4.6506 121.7277 2767.6729)">
		<stop  offset="0" style="stop-color:#FFFFA7"/>
		<stop  offset="0.9677" style="stop-color:#C34900"/>
	</linearGradient>
	<path opacity="0.4" fill="url(#SVGID_4_)" enable-background="new    " d="M482.361,318.154c0-4.893-3.435-12.074-3.435-12.074
		c-0.521-1.25-2.396-3.956-3.54-5.621l0,0c-0.416-0.521-0.625-0.833-0.625-0.833c-3.436-3.956-8.743-8.432-11.034-11.242
		c-2.706-3.331-2.81-6.454-2.915-8.952c-0.415-6.558,2.291-10.618,5.102-14.469c4.373-5.934,5.829-6.975,9.161-10.826
		c2.081-2.499,3.852-4.476,5.309-6.246h-32.27c-1.873,2.499-5.829,7.183-8.016,11.346c-2.914,5.517-5.309,9.681-5.621,19.882
		l0.104,3.331c0,4.789,3.435,11.971,3.435,11.971c0.521,1.249,2.396,3.956,3.54,5.621l0,0c0.416,0.521,0.624,0.832,0.624,0.832
		c3.435,3.956,8.744,8.433,11.033,11.243c2.708,3.331,2.811,6.454,2.915,8.951c0.417,6.559-2.289,10.618-5.1,14.47
		c-4.373,5.934-5.934,6.975-9.265,10.826c-2.081,2.498-3.852,4.476-5.309,6.245h33.31c1.978-2.498,4.788-7.183,6.975-11.347
		c2.915-5.517,5.308-9.681,5.621-19.882V318.154z M475.803,340.014l-0.313,0.624c-2.186,4.164-4.58,8.119-6.349,10.514H439.89
		c0.625-0.832,1.354-1.561,2.186-2.498l1.041-1.145c1.042-1.25,1.874-2.187,2.811-3.02c1.77-1.978,3.539-3.852,6.559-7.911
		c3.227-4.372,5.829-8.641,5.412-15.511v-0.312c-0.104-2.498-0.312-5.934-3.227-9.576c-1.249-1.458-3.123-3.331-5.205-5.31
		c-2.082-1.978-4.163-4.06-5.934-6.037l-0.52-0.729c-1.354-1.874-2.915-4.268-3.435-5.309c-0.104-0.104-3.332-6.974-3.332-11.45
		l-0.104-3.331c0.208-9.368,2.395-13.428,5.101-18.528l0.313-0.625c1.874-3.539,4.996-7.495,7.078-10.097l0.313-0.416h28.209
		c-0.625,0.833-1.353,1.666-2.186,2.498l-1.041,1.145c-1.041,1.25-1.873,2.186-2.706,3.019c-1.771,1.978-3.54,3.852-6.559,7.912
		c-3.227,4.372-5.829,8.64-5.413,15.51v0.313c0.104,2.498,0.313,5.933,3.228,9.472c1.248,1.458,3.122,3.331,5.204,5.309
		c2.082,1.978,4.164,4.06,5.934,5.934c0,0,0,0.104,0.104,0.208l0.417,0.521c1.77,2.497,3.019,4.476,3.436,5.308
		c0.104,0.104,3.331,6.975,3.331,11.452l0.103,3.33C480.696,330.853,478.509,334.914,475.803,340.014z"/>
</g>
<path display="none" fill="#7F3F98" d="M554.882,394.837c-0.465-11.16-0.93-18.602-8.371-27.438
	c-4.186-5.115-12.557-13.021-20.928-21.393c-9.301-8.836-17.207-17.207-27.904-28.834c-10.695-11.162-25.113-39.996-25.113-39.996
	c-4.186-9.301-12.09-29.299-13.951-47.901l-32.09-163.702h-90.687l-44.646,206.023l-39.53-206.023H144.698l96.733,469.248h90.222
	l45.111-202.768l39.996,202.768h41.855l12.557-13.486c5.58-6.977,12.557-14.883,20.463-24.184l4.186-4.65
	c5.115-5.58,8.836-10.23,13.021-14.418c7.906-8.371,14.883-15.811,26.975-32.553C548.373,428.789,556.279,416.232,554.882,394.837z
	 M530.234,441.345c-12.092,16.277-18.602,23.717-26.508,32.088l-0.93,0.932c-3.721,4.186-7.906,8.371-12.557,13.951l-4.186,4.65
	c-8.371,9.766-14.883,17.207-20.463,24.184l-10.232,11.162h-33.02l-38.6-197.652h-13.487l-43.716,197.186h-79.061L153.534,73.48
	h93.013l38.135,200.442h13.487l43.25-200.907h79.526l30.693,157.656c2.326,19.068,10.232,39.065,14.883,49.297
	c0.93,1.395,14.883,30.229,26.043,41.856l3.256,3.721c9.301,9.766,16.277,17.207,24.648,25.113
	c7.906,7.441,16.277,15.346,20.463,20.463c5.58,6.975,6.045,13.021,6.51,23.252C548.837,414.371,541.861,425.533,530.234,441.345z"
	/>
<path display="none" fill="#7F3F98" d="M693.472,380.421c0-21.857-15.348-53.947-15.348-53.947
	c-2.326-5.58-10.697-17.672-15.813-25.113l0,0c-1.859-2.326-2.791-3.721-2.791-3.721c-15.346-17.672-39.064-37.67-49.295-50.227
	c-12.092-14.882-12.557-28.834-13.023-39.996c-1.859-29.299,10.232-47.437,22.789-64.644c19.533-26.509,26.043-31.159,40.926-48.367
	c9.301-11.162,17.207-19.998,23.719-27.904h-144.17c-8.371,11.162-26.043,32.089-35.811,50.692
	c-13.021,24.648-23.719,43.251-25.113,88.827l0.465,14.882c0,21.393,15.348,53.482,15.348,53.482
	c2.324,5.581,10.697,17.672,15.813,25.112l0,0c1.859,2.326,2.789,3.721,2.789,3.721c15.348,17.674,39.066,37.67,49.297,50.227
	c12.092,14.883,12.557,28.834,13.021,39.996c1.861,29.299-10.23,47.438-22.787,64.645c-19.533,26.508-26.508,31.158-41.391,48.365
	c-9.301,11.162-17.207,19.998-23.719,27.904h148.82c8.836-11.162,21.393-32.09,31.16-50.691
	c13.021-24.648,23.717-43.252,25.113-88.828V380.421z M664.173,478.083l-1.396,2.791c-9.766,18.604-20.463,36.275-28.369,46.971
	H503.726c2.791-3.719,6.045-6.975,9.766-11.16l4.65-5.115c4.652-5.582,8.371-9.768,12.557-13.488
	c7.906-8.836,15.813-17.207,29.301-35.344c14.416-19.533,26.043-38.602,24.182-69.295v-1.395
	c-0.465-11.162-1.395-26.51-14.416-42.787c-5.58-6.51-13.953-14.881-23.254-23.717s-18.602-18.139-26.508-26.975l-2.326-3.255
	c-6.045-8.371-13.021-19.068-15.346-23.718c-0.465-0.465-14.883-31.159-14.883-51.157l-0.465-14.882
	c0.93-41.855,10.697-59.993,22.787-82.781l1.396-2.79c8.371-15.813,22.322-33.485,31.623-45.111l1.396-1.86h126.031
	c-2.791,3.721-6.045,7.441-9.766,11.162l-4.65,5.116c-4.65,5.581-8.371,9.767-12.092,13.487
	c-7.906,8.836-15.813,17.208-29.299,35.345c-14.418,19.533-26.045,38.6-24.184,69.294v1.395
	c0.465,11.162,1.395,26.509,14.416,42.321c5.582,6.511,13.953,14.882,23.254,23.718s18.602,18.137,26.508,26.509
	c0,0,0,0.465,0.465,0.93l1.861,2.326c7.906,11.16,13.486,19.996,15.348,23.717c0.465,0.465,14.881,31.16,14.881,51.158l0.465,14.881
	C686.031,437.16,676.265,455.296,664.173,478.083z"/>
</svg>
